<svg width="18" height="25" viewBox="0 0 18 25" fill="none" xmlns="http://www.w3.org/2000/svg">
<path d="M0.4 5.704C0.4 2.536 2.048 0.951998 5.344 0.951998H13.456C15.024 0.951998 16.16 1.256 16.864 1.864C17.568 2.472 17.92 3.592 17.92 5.224V9.688L4.24 18.328V21.736H14.128V18.952H17.92V21.496C17.92 22.456 17.616 23.288 17.008 23.992C16.432 24.664 15.456 25 14.08 25H4.24C2.864 25 1.872 24.664 1.264 23.992C0.688 23.288 0.4 22.456 0.4 21.496V5.704ZM4.24 14.44L14.08 8.248V4.264H4.24V14.44Z" fill="#B1FF42"/>
</svg>
