<svg width="123" height="53" viewBox="0 0 123 53" fill="none" xmlns="http://www.w3.org/2000/svg">
<g clip-path="url(#clip0_710_247)">
<path fill-rule="evenodd" clip-rule="evenodd" d="M-0.753022 26.3295H12.6425L26.038 6H12.6425L-0.753022 26.3295ZM26.0371 46.6594H12.6414L-0.754089 26.3299H12.6414L26.0371 46.6594Z" fill="#94E323"/>
<path fill-rule="evenodd" clip-rule="evenodd" d="M39.0009 25.9994H25.6055L12.21 5.66992H25.6055L39.0009 25.9994ZM12.2092 46.3293H25.6047L39 25.9998L25.6055 25.9994L12.2092 46.3293Z" fill="#B1FF42"/>
<path d="M53.94 22.44H51.6C51.14 20.88 49.84 20.02 48.22 20.02C45.74 20.02 44.26 22 44.26 25.22C44.26 28.44 45.72 30.38 48.22 30.38C49.78 30.38 51.04 29.58 51.56 28.04H53.92C53.18 30.74 50.9 32.26 48.22 32.26C44.34 32.26 41.98 29.6 41.98 25.22C41.98 20.86 44.36 18.14 48.28 18.14C50.98 18.14 53.3 19.62 53.94 22.44ZM60.2509 32.26C57.1509 32.26 55.2709 30.16 55.2709 26.68C55.2709 23.06 57.2109 21.06 60.2509 21.06C63.3509 21.06 65.2309 23.2 65.2309 26.68C65.2309 30.28 63.2909 32.26 60.2509 32.26ZM60.2509 30.46C62.0709 30.46 63.0509 29.14 63.0509 26.68C63.0509 24.24 62.0509 22.86 60.2509 22.86C58.4509 22.86 57.4509 24.2 57.4509 26.68C57.4509 29.1 58.4509 30.46 60.2509 30.46ZM67.0944 32V17.6H69.2344V32H67.0944ZM73.3009 24.14C73.3009 26.86 80.1209 24.58 80.1209 28.92C80.1209 30.94 78.3009 32.26 75.7209 32.26C73.1409 32.26 71.3209 31.06 70.9209 28.52H73.0609C73.2809 29.86 74.2809 30.6 75.7809 30.6C77.2209 30.6 77.9809 29.96 77.9809 29.06C77.9809 26.4 71.2609 28.64 71.2609 24.26C71.2609 22.6 72.5609 21.06 75.2609 21.06C77.6409 21.06 79.4009 22.16 79.7409 24.82H77.6009C77.3609 23.32 76.5209 22.76 75.1609 22.76C73.9809 22.76 73.3009 23.34 73.3009 24.14ZM82.1297 28.82V23H80.6897V21.34H82.1297V18.88H84.2697V21.34H86.5697V23H84.2697V28.7C84.2697 29.92 84.6097 30.5 86.1097 30.5H86.5297V32.06C86.2897 32.18 85.7897 32.26 85.1897 32.26C83.1097 32.26 82.1297 31.12 82.1297 28.82ZM87.9578 20.02V17.6H90.0978V20.02H87.9578ZM87.9578 32V21.34H90.0978V32H87.9578ZM101.484 25.06H99.3444C99.0844 23.54 98.1044 22.86 96.8644 22.86C95.0844 22.86 94.1244 24.22 94.1244 26.68C94.1244 29.1 95.1244 30.48 96.9244 30.48C98.2044 30.48 99.1044 29.78 99.4244 28.42H101.544C101.084 31.08 99.2444 32.26 96.8844 32.26C93.8044 32.26 91.9444 30.14 91.9444 26.68C91.9444 23.06 93.8444 21.06 96.8644 21.06C99.2444 21.06 101.124 22.4 101.484 25.06ZM110.499 32.88C106.139 32.88 102.999 29.76 102.999 25.5C102.999 21.22 106.139 18.14 110.499 18.14C114.839 18.14 117.999 21.24 117.999 25.5C117.999 29.74 114.839 32.88 110.499 32.88ZM110.499 32.04C114.259 32.04 116.999 29.28 116.999 25.5C116.999 21.8 114.259 18.98 110.499 18.98C106.739 18.98 103.979 21.8 103.979 25.5C103.979 29.28 106.739 32.04 110.499 32.04ZM114.399 23.86H112.459C112.179 22.94 111.479 22.44 110.539 22.44C109.119 22.44 108.319 23.6 108.319 25.52C108.319 27.44 109.119 28.58 110.539 28.58C111.439 28.58 112.139 28.06 112.439 27.2H114.379C113.939 29.16 112.439 30.1 110.599 30.1C107.999 30.1 106.379 28.36 106.379 25.52C106.379 22.68 107.979 20.9 110.579 20.9C112.439 20.9 113.999 21.92 114.399 23.86Z" fill="white"/>
</g>
<defs>
<clipPath id="clip0_710_247">
<rect width="123" height="53" fill="white"/>
</clipPath>
</defs>
</svg>
