<svg width="99" height="33" viewBox="0 0 99 33" fill="none" xmlns="http://www.w3.org/2000/svg">
<path d="M25.598 26.7144V12.1689H34.7173V14.0581H27.7926V18.4899H34.2415V20.372H27.7926V24.8252H34.8026V26.7144H25.598ZM44.6234 30.8053V25.0169H44.4956C44.3677 25.2489 44.1831 25.5141 43.9416 25.8124C43.7048 26.1107 43.3781 26.3711 42.9615 26.5936C42.5448 26.8162 42.005 26.9274 41.3421 26.9274C40.4615 26.9274 39.6755 26.7025 38.9842 26.2527C38.2976 25.7982 37.7579 25.1519 37.3649 24.3138C36.9766 23.471 36.7825 22.4601 36.7825 21.2811C36.7825 20.1021 36.979 19.0936 37.372 18.2555C37.7697 17.4175 38.3142 16.7759 39.0055 16.3308C39.6968 15.8858 40.4804 15.6632 41.3563 15.6632C42.0334 15.6632 42.5779 15.7769 42.9899 16.0041C43.4065 16.2267 43.7285 16.4871 43.9558 16.7854C44.1878 17.0837 44.3677 17.3465 44.4956 17.5737H44.6731V15.8053H46.747V30.8053H44.6234ZM41.8109 25.1163C42.4217 25.1163 42.9378 24.9554 43.3592 24.6334C43.7853 24.3067 44.1073 23.8545 44.3251 23.2769C44.5476 22.6992 44.6589 22.0269 44.6589 21.2598C44.6589 20.5022 44.55 19.8394 44.3322 19.2712C44.1144 18.703 43.7948 18.2603 43.3734 17.943C42.952 17.6258 42.4312 17.4672 41.8109 17.4672C41.1717 17.4672 40.639 17.6329 40.2129 17.9644C39.7867 18.2958 39.4648 18.748 39.247 19.3209C39.0339 19.8938 38.9274 20.5401 38.9274 21.2598C38.9274 21.989 39.0363 22.6448 39.2541 23.2271C39.4719 23.8095 39.7938 24.2712 40.22 24.6121C40.6509 24.9483 41.1812 25.1163 41.8109 25.1163ZM56.2926 22.1902V15.8053H58.4233V26.7144H56.3352V24.8252H56.2216C55.9706 25.4075 55.5682 25.8929 55.0142 26.2811C54.4649 26.6646 53.7808 26.8564 52.9616 26.8564C52.2609 26.8564 51.6406 26.7025 51.1008 26.3948C50.5658 26.0823 50.1444 25.6206 49.8366 25.0098C49.5336 24.399 49.3821 23.6438 49.3821 22.7442V15.8053H51.5057V22.4885C51.5057 23.2319 51.7116 23.8237 52.1236 24.2641C52.5355 24.7044 53.0705 24.9246 53.7287 24.9246C54.1264 24.9246 54.5218 24.8252 54.9148 24.6263C55.3125 24.4274 55.6416 24.1268 55.902 23.7243C56.1671 23.3218 56.2973 22.8105 56.2926 22.1902ZM61.0566 26.7144V15.8053H63.1802V26.7144H61.0566ZM62.1291 14.122C61.7597 14.122 61.4425 13.9989 61.1774 13.7527C60.9169 13.5018 60.7867 13.2035 60.7867 12.8578C60.7867 12.5074 60.9169 12.2091 61.1774 11.9629C61.4425 11.712 61.7597 11.5865 62.1291 11.5865C62.4984 11.5865 62.8132 11.712 63.0737 11.9629C63.3388 12.2091 63.4714 12.5074 63.4714 12.8578C63.4714 13.2035 63.3388 13.5018 63.0737 13.7527C62.8132 13.9989 62.4984 14.122 62.1291 14.122ZM67.9407 20.2371V26.7144H65.8171V15.8053H67.8554V17.5808H67.9904C68.2413 17.0032 68.6343 16.5392 69.1694 16.1888C69.7091 15.8384 70.3886 15.6632 71.2077 15.6632C71.9511 15.6632 72.6021 15.8195 73.1608 16.132C73.7195 16.4397 74.1528 16.899 74.4606 17.5098C74.7683 18.1206 74.9222 18.8758 74.9222 19.7754V26.7144H72.7986V20.0311C72.7986 19.2404 72.5927 18.6225 72.1807 18.1774C71.7688 17.7276 71.203 17.5027 70.4833 17.5027C69.9909 17.5027 69.5529 17.6092 69.1694 17.8223C68.7906 18.0354 68.4899 18.3479 68.2674 18.7598C68.0496 19.167 67.9407 19.6594 67.9407 20.2371ZM82.1454 26.9345C81.1227 26.9345 80.2301 26.7002 79.4678 26.2314C78.7055 25.7627 78.1137 25.1069 77.6923 24.2641C77.2709 23.4213 77.0602 22.4364 77.0602 21.3095C77.0602 20.1779 77.2709 19.1883 77.6923 18.3408C78.1137 17.4932 78.7055 16.8351 79.4678 16.3663C80.2301 15.8976 81.1227 15.6632 82.1454 15.6632C83.1681 15.6632 84.0606 15.8976 84.8229 16.3663C85.5853 16.8351 86.1771 17.4932 86.5985 18.3408C87.0199 19.1883 87.2306 20.1779 87.2306 21.3095C87.2306 22.4364 87.0199 23.4213 86.5985 24.2641C86.1771 25.1069 85.5853 25.7627 84.8229 26.2314C84.0606 26.7002 83.1681 26.9345 82.1454 26.9345ZM82.1525 25.1519C82.8154 25.1519 83.3646 24.9767 83.8002 24.6263C84.2358 24.2759 84.5578 23.8095 84.7661 23.2271C84.9792 22.6448 85.0857 22.0032 85.0857 21.3024C85.0857 20.6064 84.9792 19.9672 84.7661 19.3848C84.5578 18.7977 84.2358 18.3266 83.8002 17.9715C83.3646 17.6163 82.8154 17.4388 82.1525 17.4388C81.4849 17.4388 80.9309 17.6163 80.4906 17.9715C80.0549 18.3266 79.7306 18.7977 79.5175 19.3848C79.3092 19.9672 79.205 20.6064 79.205 21.3024C79.205 22.0032 79.3092 22.6448 79.5175 23.2271C79.7306 23.8095 80.0549 24.2759 80.4906 24.6263C80.9309 24.9767 81.4849 25.1519 82.1525 25.1519ZM90.6274 15.8053L93.0351 20.0524L95.4641 15.8053H97.7865L94.3845 21.2598L97.8149 26.7144H95.4925L93.0351 22.6377L90.5848 26.7144H88.2553L91.6502 21.2598L88.2979 15.8053H90.6274Z" fill="white"/>
<path d="M2.4 11.704C2.4 8.536 4.048 6.952 7.344 6.952H15.456C17.024 6.952 18.16 7.256 18.864 7.864C19.568 8.472 19.92 9.592 19.92 11.224V15.688L6.24 24.328V27.736H16.128V24.952H19.92V27.496C19.92 28.456 19.616 29.288 19.008 29.992C18.432 30.664 17.456 31 16.08 31H6.24C4.864 31 3.872 30.664 3.264 29.992C2.688 29.288 2.4 28.456 2.4 27.496V11.704ZM6.24 20.44L16.08 14.248V10.264H6.24V20.44Z" fill="#B1FF42"/>
</svg>
