<svg width="98" height="58" viewBox="0 0 98 58" fill="none" xmlns="http://www.w3.org/2000/svg">
<path d="M24.598 47V32.4545H33.7173V34.3438H26.7926V38.7756H33.2415V40.6577H26.7926V45.1108H33.8026V47H24.598ZM43.6234 51.0909V45.3026H43.4956C43.3677 45.5346 43.1831 45.7997 42.9416 46.098C42.7048 46.3963 42.3781 46.6567 41.9615 46.8793C41.5448 47.1018 41.005 47.2131 40.3421 47.2131C39.4615 47.2131 38.6755 46.9882 37.9842 46.5384C37.2976 46.0838 36.7579 45.4375 36.3649 44.5994C35.9766 43.7566 35.7825 42.7457 35.7825 41.5668C35.7825 40.3878 35.979 39.3793 36.372 38.5412C36.7697 37.7031 37.3142 37.0616 38.0055 36.6165C38.6968 36.1714 39.4804 35.9489 40.3563 35.9489C41.0334 35.9489 41.5779 36.0625 41.9899 36.2898C42.4065 36.5123 42.7285 36.7727 42.9558 37.071C43.1878 37.3693 43.3677 37.6321 43.4956 37.8594H43.6731V36.0909H45.747V51.0909H43.6234ZM40.8109 45.402C41.4217 45.402 41.9378 45.241 42.3592 44.919C42.7853 44.5923 43.1073 44.1402 43.3251 43.5625C43.5476 42.9848 43.6589 42.3125 43.6589 41.5455C43.6589 40.7879 43.55 40.125 43.3322 39.5568C43.1144 38.9886 42.7948 38.5459 42.3734 38.2287C41.952 37.9115 41.4312 37.7528 40.8109 37.7528C40.1717 37.7528 39.639 37.9186 39.2129 38.25C38.7867 38.5814 38.4648 39.0336 38.247 39.6065C38.0339 40.1795 37.9274 40.8258 37.9274 41.5455C37.9274 42.2746 38.0363 42.9304 38.2541 43.5128C38.4719 44.0952 38.7938 44.5568 39.22 44.8977C39.6509 45.2339 40.1812 45.402 40.8109 45.402ZM55.2926 42.4759V36.0909H57.4233V47H55.3352V45.1108H55.2216C54.9706 45.6932 54.5682 46.1785 54.0142 46.5668C53.4649 46.9503 52.7808 47.142 51.9616 47.142C51.2609 47.142 50.6406 46.9882 50.1008 46.6804C49.5658 46.3679 49.1444 45.9062 48.8366 45.2955C48.5336 44.6847 48.3821 43.9295 48.3821 43.0298V36.0909H50.5057V42.7741C50.5057 43.5175 50.7116 44.1094 51.1236 44.5497C51.5355 44.9901 52.0705 45.2102 52.7287 45.2102C53.1264 45.2102 53.5218 45.1108 53.9148 44.9119C54.3125 44.7131 54.6416 44.4124 54.902 44.0099C55.1671 43.6075 55.2973 43.0961 55.2926 42.4759ZM60.0566 47V36.0909H62.1802V47H60.0566ZM61.1291 34.4077C60.7597 34.4077 60.4425 34.2846 60.1774 34.0384C59.9169 33.7874 59.7867 33.4891 59.7867 33.1435C59.7867 32.7931 59.9169 32.4948 60.1774 32.2486C60.4425 31.9976 60.7597 31.8722 61.1291 31.8722C61.4984 31.8722 61.8132 31.9976 62.0737 32.2486C62.3388 32.4948 62.4714 32.7931 62.4714 33.1435C62.4714 33.4891 62.3388 33.7874 62.0737 34.0384C61.8132 34.2846 61.4984 34.4077 61.1291 34.4077ZM66.9407 40.5227V47H64.8171V36.0909H66.8554V37.8665H66.9904C67.2413 37.2888 67.6343 36.8248 68.1694 36.4744C68.7091 36.1241 69.3886 35.9489 70.2077 35.9489C70.9511 35.9489 71.6021 36.1051 72.1608 36.4176C72.7195 36.7254 73.1528 37.1847 73.4606 37.7955C73.7683 38.4062 73.9222 39.1615 73.9222 40.0611V47H71.7986V40.3168C71.7986 39.526 71.5927 38.9081 71.1807 38.4631C70.7688 38.0133 70.203 37.7884 69.4833 37.7884C68.9909 37.7884 68.5529 37.8949 68.1694 38.108C67.7906 38.321 67.4899 38.6335 67.2674 39.0455C67.0496 39.4527 66.9407 39.9451 66.9407 40.5227ZM81.1454 47.2202C80.1227 47.2202 79.2301 46.9858 78.4678 46.517C77.7055 46.0483 77.1137 45.3925 76.6923 44.5497C76.2709 43.7069 76.0602 42.7221 76.0602 41.5952C76.0602 40.4635 76.2709 39.474 76.6923 38.6264C77.1137 37.7789 77.7055 37.1207 78.4678 36.652C79.2301 36.1832 80.1227 35.9489 81.1454 35.9489C82.1681 35.9489 83.0606 36.1832 83.8229 36.652C84.5853 37.1207 85.1771 37.7789 85.5985 38.6264C86.0199 39.474 86.2306 40.4635 86.2306 41.5952C86.2306 42.7221 86.0199 43.7069 85.5985 44.5497C85.1771 45.3925 84.5853 46.0483 83.8229 46.517C83.0606 46.9858 82.1681 47.2202 81.1454 47.2202ZM81.1525 45.4375C81.8154 45.4375 82.3646 45.2623 82.8002 44.9119C83.2358 44.5616 83.5578 44.0952 83.7661 43.5128C83.9792 42.9304 84.0857 42.2888 84.0857 41.5881C84.0857 40.892 83.9792 40.2528 83.7661 39.6705C83.5578 39.0833 83.2358 38.6122 82.8002 38.2571C82.3646 37.902 81.8154 37.7244 81.1525 37.7244C80.4849 37.7244 79.9309 37.902 79.4906 38.2571C79.0549 38.6122 78.7306 39.0833 78.5175 39.6705C78.3092 40.2528 78.205 40.892 78.205 41.5881C78.205 42.2888 78.3092 42.9304 78.5175 43.5128C78.7306 44.0952 79.0549 44.5616 79.4906 44.9119C79.9309 45.2623 80.4849 45.4375 81.1525 45.4375ZM89.6274 36.0909L92.0351 40.3381L94.4641 36.0909H96.7865L93.3845 41.5455L96.8149 47H94.4925L92.0351 42.9233L89.5848 47H87.2553L90.6502 41.5455L87.2979 36.0909H89.6274Z" fill="white"/>
<path d="M2.4 33.704C2.4 30.536 4.048 28.952 7.344 28.952H15.456C17.024 28.952 18.16 29.256 18.864 29.864C19.568 30.472 19.92 31.592 19.92 33.224V37.688L6.24 46.328V49.736H16.128V46.952H19.92V49.496C19.92 50.456 19.616 51.288 19.008 51.992C18.432 52.664 17.456 53 16.08 53H6.24C4.864 53 3.872 52.664 3.264 51.992C2.688 51.288 2.4 50.456 2.4 49.496V33.704ZM6.24 42.44L16.08 36.248V32.264H6.24V42.44Z" fill="#B1FF42"/>
</svg>
